# xmcd
#
# Track frame offsets: 
#        150
#        30817
#        44465
#        57959
#        70513
#        83559
#        96255
#        108189
#        121595
#        133746
#        144697
#        155469
#
# Disc length: 2258 seconds
#
# Revision: 3
# Processed by: cddbd v1.5.2PL0 Copyright (c) Steve Scherf et al.
# Submitted via: ExactAudioCopyFreeDBPlugin 1.0
#
DISCID=9108d00c
DTITLE=Ray Price - Night LIfe
DYEAR=1963
DGENRE=Country
TTITLE0=Introduction and Theme - Night LIfe
TTITLE1=Lonely Street
TTITLE2=The Wild Side of Life
TTITLE3=Sittin' and Thinkin'
TTITLE4=The Twenty Fourth Hour
TTITLE5=A Girl In The Night
TTITLE6=Pride
TTITLE7=There's No Fool Like a Young Fool
TTITLE8=If She Could See Me Now
TTITLE9=Bright Lights and Blonde-Haired Women
TTITLE10=Are You Sure
TTITLE11=Let Me Talk To You
EXTD=
EXTT0=
EXTT1=
EXTT2=
EXTT3=
EXTT4=
EXTT5=
EXTT6=
EXTT7=
EXTT8=
EXTT9=
EXTT10=
EXTT11=
PLAYORDER=
